
<svg xmlns="http://www.w3.org/2000/svg" version="1.1" xmlns:xlink="http://www.w3.org/1999/xlink" preserveAspectRatio="none" x="0px" y="0px" width="400px" height="150px" viewBox="0 0 400 150">
<defs>
<linearGradient id="Gradient_1" gradientUnits="userSpaceOnUse" x1="200" y1="21.499999999999996" x2="200" y2="83.1" spreadMethod="pad">
<stop  offset="1.9607843137254901%" stop-color="#FFFFFF"/>

<stop  offset="100%" stop-color="#D0FEC5"/>
</linearGradient>

<g id="background_alt_0_Layer1_0_FILL">
<path fill="url(#Gradient_1)" stroke="none" d="
M 400 110
L 400 0 0 0 0 110 400 110 Z"/>

<path fill="#6AEA84" stroke="none" d="
M 400 150
L 400 110 0 110 0 150 400 150 Z"/>
</g>

<path id="background_alt_0_Layer1_1_1_STROKES" stroke="#00D800" stroke-width="1" stroke-linejoin="round" stroke-linecap="round" fill="none" d="
M 385.35 40
Q 387.75 42.8 387.75 48.1 387.75 53.4 385.35 56.15 383.05 53.4 383.05 48.1 383.05 42.8 385.35 40 Z
M 362.25 55.35
Q 365.7 56.6 368.35 61.15 370.95 65.75 370.3 69.35 366.95 68.1 364.25 63.5 361.65 58.95 362.25 55.35 Z
M 351.25 62.1
Q 347.65 62.6 344.1 66.45 340.5 70.4 340.35 74 343.95 73.5 347.5 69.65 351.1 65.7 351.25 62.1 Z
M 298.75 28.25
L 293.8 27.85 288.85 26.75 283.8 26.3 278.8 26.55 273.85 27.4 269.05 28.9 264.5 31.05 267.85 34.75 271.75 38 275.95 40.75 280.55 42.85 284.8 45.55 288.65 48.8 292.1 52.55 294.95 56.65 297.25 61.15 298.95 65.9 300.1 70.8 300.55 75.85 305.5 76.3 310.55 76.05 315.55 75.2 320.3 73.7 325.3 72.8 330.3 72.55 335.3 73 340.25 74.15 345 75.85 349.4 78.15 353.55 81.05 357.25 84.45 361.25 81.4 364.85 77.8 367.9 73.85 370.4 69.45 373.5 65.45 377 61.85 381.05 58.8 385.35 56.25 390.05 54.35 394.9 53.05 399.9 52.4
M 326.05 87.05
Q 322.7 91.1 322.7 94.7 326.25 94.05 329.65 90 333 86 333 82.35 329.45 83 326.05 87.05 Z
M 330.3 72.55
L 331.4 77.5 333.1 82.25 335.4 86.75 338.35 90.85 340.65 95.3 342.35 100.05 343.5 105 343.95 110
M 354.5 89.4
Q 352 92 346.7 92.45 341.45 92.9 338.5 90.85 341.05 88.25 346.3 87.8 351.55 87.35 354.5 89.4 Z
M 357.25 84.45
L 361.4 87.35
M 377 61.85
L 381.15 64.8 385.6 67.1 390.35 68.85 395.3 69.95 400 71.65
M 373.4 77.7
Q 378.45 79.1 380.55 82.05 377.25 83.55 372.2 82.2 367.05 80.85 365 77.85 368.25 76.3 373.4 77.7 Z
M 386.3 83.35
Q 383.85 80.75 383.65 75.45 383.4 70.15 385.6 67.25 388.1 69.95 388.35 75.2 388.55 80.5 386.3 83.35 Z
M 325.55 104.7
Q 320.65 102.65 319 99.4 322.5 98.35 327.35 100.35 332.2 102.4 333.9 105.6 330.45 106.75 325.55 104.7 Z
M 342.35 100.05
L 338.05 102.6 334 105.65 330.5 109.25
M 305.5 18.45
Q 300.4 19.85 297.1 18.25 299.2 15.3 304.3 13.95 309.45 12.55 312.7 14.1 310.6 17.05 305.5 18.45 Z
M 293.8 27.85
L 295.7 23.15 297 18.3 297.65 13.35 297.65 8.3 298.3 3.3
M 289.4 6.15
Q 294 8.85 297.5 8.2 296.25 4.8 291.7 2.15 287.15 -0.5 283.55 0.1 284.85 3.55 289.4 6.15 Z
M 293.9 33.5
Q 290.25 33.2 285.95 36.25 281.6 39.25 280.65 42.8 284.25 43.1 288.6 40.05 292.95 37.05 293.9 33.5 Z
M 277.35 11.5
Q 279.05 14.75 277.95 19.9 276.75 25.1 273.9 27.25 272.2 24.05 273.35 18.9 274.5 13.75 277.35 11.5 Z
M 256.15 28.45
Q 254.55 23.4 251.5 21.5 250.1 24.85 251.7 29.9 253.25 34.9 256.35 36.9 257.75 33.5 256.15 28.45 Z
M 257.45 45.7
Q 262.1 48.15 263.55 51.55 259.95 52.3 255.3 49.85 250.65 47.45 249.25 44.05 252.75 43.25 257.45 45.7 Z
M 187.6 28.35
L 191.6 29.65 196.5 30.5 201.55 30.7 206.6 30.3 211.55 30.5 216.55 31.35 221.35 32.9 225.9 35.05 230.15 37.75 234.05 41 237.4 44.7 240.3 48.8 244.85 46.7 249.15 43.95 252.95 40.75 256.4 37 260.25 33.75 264.5 31.05
M 271.75 38.15
Q 268.95 40.55 268 45.7 267.1 50.9 268.9 54.05 271.7 51.75 272.65 46.55 273.55 41.3 271.75 38.15 Z
M 268.1 60
Q 270.55 57.35 275.75 56.6 281 55.9 284.05 57.9 281.6 60.55 276.4 61.25 271.2 61.9 268.1 60 Z
M 288.65 48.8
L 286.15 53.2 284.2 57.85 282.9 62.75 282.25 67.7 280.95 72.6 279.05 77.25 276.5 81.65 273.45 85.65 269.85 89.2 265.9 92.3 261.5 94.8 256.9 96.75 257.95 101.7 259.7 106.4
M 223.85 61.3
L 227.15 65.15 230.8 68.6 234.95 71.45 239.4 73.8 244.15 75.55 249.05 76.6 248.65 71.6 247.5 66.65
M 259.05 76.95
Q 260.3 80.4 258.5 85.35 256.7 90.35 253.55 92.15 252.3 88.75 254.1 83.75 255.95 78.75 259.05 76.95 Z
M 279.05 77.25
L 274.1 76.2 269.05 75.75 264.05 75.95 259.1 76.85 254.05 77.05 249.05 76.6
M 273.5 85.8
Q 272.4 89.2 274.4 94.1 276.4 99 279.65 100.65 280.75 97.25 278.75 92.35 276.7 87.45 273.5 85.8 Z
M 269 75.6
Q 265.75 74.1 263.55 69.3 261.25 64.5 262.2 60.95 265.5 62.5 267.75 67.3 269.95 72.1 269 75.6 Z
M 323.85 57.8
Q 325.5 61 324.4 66.15 323.25 71.35 320.35 73.5 318.65 70.3 319.8 65.15 320.95 60 323.85 57.8 Z
M 303.3 58.3
Q 308.6 57.85 311.15 55.25 308.2 53.2 302.9 53.65 297.65 54.1 295.1 56.65 298.05 58.75 303.3 58.3 Z
M 300.55 75.85
L 301.6 80.8
M 295.15 77.65
Q 294.35 74.15 290.15 70.9 286 67.65 282.35 67.8 283.15 71.35 287.35 74.6 291.5 77.8 295.15 77.65 Z
M 313 84.25
Q 315.85 88.7 319.3 89.8 319.75 86.25 316.95 81.75 314.1 77.3 310.65 76.2 310.15 79.8 313 84.25 Z
M 213.45 15.5
Q 210.15 17.05 207.95 21.85 205.7 26.6 206.65 30.15 209.9 28.6 212.2 23.8 214.4 19.05 213.45 15.5 Z
M 217.1 41.5
Q 216.3 45 212.15 48.25 207.95 51.45 204.3 51.3 205.15 47.8 209.3 44.55 213.5 41.35 217.1 41.5 Z
M 216.55 31.35
L 216.55 36.4 217.2 41.45 218.5 46.3 220.45 50.95 221.75 55.8 222.4 60.8 222.4 65.85 221.75 70.9 220.45 75.75 218.5 80.4 216 84.8 212.95 88.75 216.35 92.5 220.2 95.75 224.45 98.45 229 100.55 233.25 103.3 237.1 106.5
M 226 34.9
Q 227 31.4 231.3 28.35 235.65 25.35 239.2 25.7 238.3 29.15 234 32.2 229.65 35.3 226 34.9 Z
M 155.55 13.225
L 161 13.7 165.9 14.75 170.65 16.5 175.1 18.8 179.2 21.7 182.9 25.15 186.9 22.05 190.5 18.45
M 166 14.65
Q 166.1 11 169.75 7.15 173.25 3.25 176.9 2.75 176.75 6.4 173.15 10.3 169.6 14.2 166 14.65 Z
M 178.25 30.05
Q 182.1 33.6 182.6 37.2 179 37.05 175.1 33.45 171.2 29.9 170.75 26.3 174.35 26.45 178.25 30.05 Z
M 102.05 19.65
L 97.15 20.75 92.1 21.15 87.2 22.25 82.5 23.95 78 26.3 73.85 29.2 70.15 32.6 74.55 35.15 79.15 37.1 84.05 38.4 89.05 39.05 93.9 40.3 98.55 42.3 102.9 44.8 106.9 47.9 110.5 51.4 113.55 55.45 116.05 59.8 118 64.5 122.9 63.4 127.65 61.65 132.05 59.35 136.2 56.4 140.7 54.1 145.4 52.4 150.3 51.25 155.35 50.85 160.35 51.05 165.3 51.95 170.15 53.45 174.65 55.6 177.6 51.45 179.9 47 181.6 42.25 182.7 37.3 184.45 32.55 186.55 28.5
M 187.1 28
L 182.9 25.15
M 196.55 30.65
Q 195.3 34.05 197.1 39 198.95 44 202.05 45.8 203.3 42.4 201.5 37.4 199.7 32.45 196.55 30.65 Z
M 196.15 46.3
Q 193.5 48.75 188.2 48.95 182.9 49.2 180.05 47 182.7 44.5 188 44.3 193.25 44.05 196.15 46.3 Z
M 166.65 74.65
L 171.4 76.35 176.35 77.45 181.3 77.85 186.35 77.65 191.35 76.8 196.1 75.3 193.25 71.15 189.8 67.4
M 174.65 55.6
L 179.5 57.15
M 173.55 61.15
Q 170.1 60.05 165.2 62.05 160.35 64.1 158.65 67.3 162.15 68.45 167 66.4 171.9 64.4 173.55 61.15 Z
M 145.4 52.4
L 147.95 56.7 151 60.75 154.55 64.35 158.55 67.35 162.1 70.95 165.15 74.95 167.65 79.35 169.65 83.95 170.9 88.85 171.6 93.85 171.6 98.9 170.9 103.9 175.7 105.4 180.65 106.3 185.7 106.5 190.75 106.05 195.75 106.3 200.7 107.2 205.55 108.7
M 177.45 87.4
Q 182.65 88.05 185.75 86.15 183.3 83.45 178.05 82.75 172.8 82.05 169.75 84 172.2 86.7 177.45 87.4 Z
M 197.6 91.35
Q 198.55 94.85 196.3 99.65 194.05 104.4 190.8 105.95 189.8 102.45 192.1 97.65 194.3 92.85 197.6 91.35 Z
M 222.4 60.8
L 217.6 62.3 213.05 64.5 208.8 67.15 204.95 70.45 200.7 73.1 196.1 75.3
M 236.55 53.1
Q 234.1 50.4 228.9 49.7 223.65 49 220.6 50.95 223.05 53.65 228.3 54.35 233.45 55 236.55 53.1 Z
M 205 61.65
Q 200.65 58.65 199.75 55.15 203.3 54.8 207.65 57.85 211.95 60.85 212.95 64.4 209.3 64.7 205 61.65 Z
M 207.75 86.5
Q 205 84.1 204.05 78.9 203.15 73.75 205 70.6 207.75 72.9 208.65 78.1 209.55 83.35 207.75 86.5 Z
M 212.95 88.75
L 210.4 93.15
M 234.65 80.8
Q 233.8 77.25 229.65 74.05 225.45 70.8 221.85 70.95 222.65 74.5 226.85 77.7 231 80.95 234.65 80.8 Z
M 242.35 91.25
Q 241.4 94.75 237.05 97.8 232.7 100.8 229.15 100.5 230.05 97 234.4 93.95 238.7 90.95 242.35 91.25 Z
M 170.9 103.9
L 170.9 108.95
M 240.3 48.8
L 243.7 52.55
M 256.9 96.75
L 252.5 99.25
M 134.8 40.2
Q 137.35 42.8 137.8 48.05 138.25 53.3 136.2 56.25 133.65 53.75 133.2 48.45 132.75 43.2 134.8 40.2 Z
M 111.1 1.9
Q 109.95 5.35 105.55 8.25 101.05 11.05 97.5 10.6 98.6 7.1 103 4.3 107.45 1.4 111.1 1.9 Z
M 97.15 20.75
L 97.6 15.7 97.35 10.65 96.5 5.7 94.95 0.85
M 92.2 31.1
Q 89 35.3 89.15 38.9 92.65 38.15 95.9 33.95 99.1 29.75 98.95 26.1 95.4 26.9 92.2 31.1 Z
M 98.55 42.3
L 97.45 47.2 97.05 52.25 97.25 57.3 98.15 62.2 98.35 67.25 97.9 72.3 96.85 77.25 95.05 81.95 92.75 86.45 89.9 90.6 86.45 94.3 82.65 97.55 85.15 101.95 88.15 105.9 91.75 109.5
M 113.6 42.55
Q 118.5 40.55 121.9 41.65 120.25 44.85 115.35 46.9 110.5 48.9 107.05 47.85 108.7 44.6 113.6 42.55 Z
M 118 64.5
L 120.5 68.85
M 113.4 67.8
Q 110 69.1 105.05 67.25 100.05 65.4 98.25 62.25 101.6 61 106.6 62.9 111.6 64.7 113.4 67.8 Z
M 90.6 57.85
Q 85.8 60.05 82.3 59.1 83.85 55.8 88.65 53.6 93.35 51.3 96.9 52.3 95.35 55.55 90.6 57.85 Z
M 80.7 69.4
Q 77.15 65.45 77 61.8 80.55 62.3 84.15 66.2 87.7 70.1 87.85 73.75 84.3 73.25 80.7 69.4 Z
M 97.9 72.3
L 92.9 72.75 87.95 73.85 83.25 75.55 78.75 77.9 74.05 79.65 69.15 80.7 64.1 81.15 59.05 80.95 54.15 80.05 49.3 78.5 44.75 76.4 40.5 73.7
M 98.55 89.75
Q 101.95 93.8 105.55 94.45 105.55 90.85 102.15 86.8 98.75 82.7 95.15 82.1 95.15 85.75 98.55 89.75 Z
M 142.35 107.6
L 146.2 104.35 149.65 100.6 145.05 98.5 140.3 97 135.3 96.15 130.25 95.9 125.35 95 120.5 93.5 115.95 91.4 111.7 88.65 107.85 85.45 104.45 81.7 101.55 77.55 99.25 73.05
M 120.5 93.5
L 121.15 88.5 121.15 83.45
M 145.65 67.45
Q 143.65 72.35 144.75 75.8 148 74.15 150 69.25 152 64.35 150.95 60.85 147.75 62.6 145.65 67.45 Z
M 140.1 72.1
Q 139.45 68.55 135.4 65.15 131.35 61.75 127.75 61.75 128.35 65.3 132.45 68.75 136.45 72.1 140.1 72.1 Z
M 136.2 89.45
Q 135.05 84.3 136.75 81.1 139.65 83.25 140.8 88.45 141.9 93.6 140.25 96.85 137.35 94.6 136.2 89.45 Z
M 165.15 74.95
L 161.8 78.65 158.85 82.8 156.55 87.3 154.85 92.05 152.5 96.5 149.65 100.6
M 158.75 82.8
Q 155.8 84.9 150.5 84.4 145.25 83.95 142.7 81.4 145.65 79.35 150.9 79.8 156.2 80.25 158.75 82.8 Z
M 165.3 104.5
Q 161.75 103.85 158.3 99.8 154.95 95.8 154.95 92.15 158.5 92.8 161.9 96.85 165.3 100.85 165.3 104.5 Z
M 162.25 36.1
Q 158.95 37.6 156.7 42.4 154.45 47.2 155.4 50.7 158.65 49.15 160.9 44.4 163.15 39.6 162.25 36.1 Z
M 81.35 53.25
Q 78.65 50.75 77.95 45.5 77.25 40.25 79.2 37.2 81.9 39.65 82.6 44.9 83.25 50.15 81.35 53.25 Z
M 76.6 10.1
Q 79.15 12.65 79.6 17.9 80.05 23.2 78 26.2 75.45 23.6 75 18.3 74.55 13.1 76.6 10.1 Z
M 54.9 27.4
Q 58.4 28.35 61.45 32.65 64.45 37 64.15 40.65 60.65 39.65 57.6 35.35 54.6 31 54.9 27.4 Z
M 44.45 35.1
Q 40.95 35.9 37.75 40.05 34.5 44.25 34.65 47.9 38.2 47.1 41.4 42.9 44.6 38.7 44.45 35.1 Z
M 0.2 53.25
L 5.2 52.55 10.05 51.25 14.7 49.3 19.55 48 24.55 47.35 29.55 47.35 34.6 48 39.45 49.3 44.05 51.25 48.45 53.8 52.45 56.8 56.15 53.45 59.35 49.55 62.1 45.3 64.2 40.75 66.95 36.5 70.15 32.6
M 14.7 49.15
Q 12.75 46.15 13.45 40.9 14.15 35.65 16.85 33.15 18.75 36.25 18.1 41.5 17.4 46.75 14.7 49.15 Z
M 25.4 64.8
Q 22.35 69.15 18.9 70.1 18.55 66.45 21.55 62.1 24.6 57.85 28.1 56.85 28.4 60.45 25.4 64.8 Z
M 24.55 47.35
L 26.05 52.2 28.2 56.7 30.9 61 34.15 64.85 36.8 69.15 39 73.7 40.5 78.5 41.35 83.45 41.55 88.5 41.15 93.55 40.05 98.45 38.35 103.2 42.7 105.7 47.35 107.7 52.25 108.95 57.25 109.5
Q 57.1 105.85 60.35 101.7 63.55 97.5 67.1 96.7 67.25 100.3 64 104.5 60.8 108.7 57.25 109.5
M 12 57.7
Q 8.8 53.45 5.25 52.7 5.1 56.3 8.3 60.5 11.55 64.7 15.05 65.5 15.2 61.85 12 57.7 Z
M 7.55 81.6
Q 7.55 76.3 9.9 73.5 12.25 76.3 12.25 81.6 12.25 86.9 9.9 89.65 7.55 86.9 7.55 81.6 Z
M 0 103.45
L 4.9 102.35 9.65 100.6 14.1 98.3 18.25 95.35 14.25 92.3 9.9 89.75 5.25 87.85 0.35 86.55
M 39 73.7
L 34.85 76.6 31.15 80 27.9 83.85 25.2 88.1 21.95 92 18.25 95.35
M 26.9 96.5
Q 29.35 101.2 32.7 102.6 33.5 99 31.05 94.3 28.6 89.6 25.25 88.25 24.5 91.8 26.9 96.5 Z
M 31 79.95
Q 29.05 76.85 24.05 75.3 19 73.7 15.6 75.1 17.6 78.15 22.6 79.75 27.65 81.35 31 79.95 Z
M 67.1 53.3
Q 72.25 54.2 75.4 52.4 73.05 49.6 67.9 48.7 62.65 47.8 59.55 49.6 61.9 52.4 67.1 53.3 Z
M 52.45 56.8
L 56.8 59.35
M 50.15 62
Q 47.05 60.2 41.8 61.1 36.6 62.05 34.3 64.85 37.4 66.65 42.6 65.75 47.85 64.8 50.15 62 Z
M 49.85 84.05
Q 44.9 82.25 41.5 83.5 43.3 86.65 48.25 88.45 53.25 90.3 56.65 89.05 54.85 85.9 49.85 84.05 Z
M 78.05 94.15
Q 80.5 91.5 80.75 86.2 80.95 80.95 78.75 78 76.3 80.7 76.1 86 75.85 91.3 78.05 94.15 Z
M 69.15 80.7
L 67.2 76.05 64.65 71.65
M 38.35 103.2
L 37.2 108.15
M 121.55 109.65
Q 121.05 106 123.9 101.6 126.75 97.15 130.2 96.05 130.65 99.6 127.85 104.1 125 108.55 121.55 109.65 Z
M 82.65 97.55
L 79.2 101.3"/>

<path id="background_alt_0_Layer1_1_2_STROKES" stroke="#E5E500" stroke-width="1" stroke-linejoin="round" stroke-linecap="round" fill="none" d="
M 361.8 97.65
Q 361.7 99.35 363.7 99.75 365.2 100.05 366.8 98.95 367.7 98.3 369 96.9 369.2 96.65 369.6 96 370 95.45 370.7 95.45 371 95.9 371.15 96.8 371.35 97.85 371.5 98.15 372.55 100.35 374.25 101.55 375.45 102.45 375.7 102.55 376.35 102.85 377.1 102.35 378.15 101.55 378.35 100.25 378.55 99 377 96.7 376.4 95.85 374.4 93.35 375.35 92.85 377.6 92 379.5 91.1 379.95 89.8 380.3 88.85 379.15 88.45 378.2 88.1 377.2 88.3 375.9 88.75 374.9 88.95 373.1 89.25 372.65 88.3 372.4 86.7 370.85 84.95 369.15 83 367.85 83.95 367.2 84.45 366.7 85.5 366.15 86.5 366.2 87.25 366.3 88.3 367.05 89.45 367.2 89.75 368.45 91.45 365.25 91.65 362.75 95.05 361.85 96.4 361.8 97.65 Z
M 308.95 23.45
Q 307.95 22.15 305.75 21.45 303.35 20.6 302.7 22.1 302.35 22.85 302.4 23.95 302.45 25.15 302.9 25.8 303.5 26.65 304.7 27.3 305.25 27.6 306.9 28.3 304.15 30.15 303.85 34.25 303.7 35.9 304.25 37 305 38.5 307 37.85 308.4 37.4 309.25 35.65 309.7 34.6 310.1 32.7 310.15 32 310.2 31.65 310.35 31 310.8 30.8 311.35 30.85 311.95 31.55 312.65 32.4 312.9 32.55 314.8 33.9 316.95 34.1 318.35 34.3 318.7 34.25 319.45 34.15 319.8 33.35 320.35 32.2 319.9 30.95 319.45 29.8 316.95 28.55 316.35 28.25 312.95 26.95 313.6 26.05 315.15 24.2 316.3 22.4 316.1 21.15 315.9 20.15 314.75 20.35 313.75 20.5 312.9 21.2 312 22.25 311.25 22.85 309.85 24.15 308.95 23.45 Z
M 258.55 60.55
Q 260.55 60.1 261.25 59 261.8 58.15 260.8 57.5 260 56.9 258.95 56.85 256.75 57.05 256.6 57.05 254.7 56.95 254.45 55.85 254.6 54.25 253.5 52.25 252.25 49.95 250.75 50.65 250.05 50.95 249.3 51.85 248.6 52.7 248.4 53.5 248.25 54.55 248.75 55.85 248.95 56.35 249.7 58.05 246.45 57.55 243.4 60.4 242.2 61.5 241.9 62.7 241.45 64.35 243.3 65.15 244.65 65.75 246.45 65.05 247.45 64.65 249.1 63.5 249.35 63.35 249.9 62.8 250.4 62.35 250.9 62.5 251.3 62.95 251.25 63.9 251.2 65 251.25 65.25 251.65 67.5 253.2 69.15 254.1 70.25 254.35 70.45 254.95 70.9 255.85 70.55 257.1 70 257.5 68.85 258 67.65 256.95 65.05 256.55 64 255.05 61.2 256.2 60.95 258.55 60.55 Z
M 300.8 92.95
Q 301.1 92.9 301.85 92.7 302.5 92.6 303 93.05 302.95 93.55 302.5 94.3 301.9 95.25 301.8 95.6 301.05 97.85 301.55 99.9 301.8 101.35 301.95 101.65 302.25 102.3 303.1 102.45 304.55 102.55 305.4 101.8 306.4 101 306.85 98.25 306.95 97.5 307.2 93.95 308.25 94.3 310.45 95.15 312.45 95.75 313.6 95.15 314.55 94.7 314 93.6 313.5 92.7 312.6 92.2 311.35 91.65 310.5 91.1 308.95 90.1 309.25 89.05 310.15 87.7 310.25 85.45 310.3 82.8 308.65 82.65 307.85 82.55 306.8 82.95 305.7 83.3 305.2 83.9 304.55 84.8 304.3 86.15 304.2 86.7 304.05 88.55 301.55 86.55 297.4 87.4 295.85 87.75 295 88.6 293.75 89.8 294.95 91.5 296.25 93.35 300.8 92.95 Z
M 192.9 54.55
Q 191.25 55.45 190.5 54.6 189.75 53.1 187.8 51.95 185.65 50.55 184.65 51.95 184.2 52.6 184 53.7 183.8 54.8 184.05 55.55 184.45 56.55 185.5 57.5 185.85 57.8 187.4 58.9 184.4 60 183.15 64.05 182.65 65.6 182.95 66.75 183.4 68.5 185.45 68.25 187.8 68 189.55 63.9 189.75 63.25 189.9 62.9 190.15 62.25 190.7 62.15 191.25 62.3 191.7 63.15 192.2 64.15 192.4 64.35 193.95 66.15 195.95 66.75 197.4 67.25 197.7 67.25 198.4 67.35 198.95 66.6 199.75 65.55 199.55 64.3 199.4 63.05 197.15 61.3 197.15 61.25 193.65 58.85 194.45 58.15 196.35 56.6 197.9 55.2 197.95 53.9 198 52.9 196.75 52.85 195.75 52.75 194.85 53.25 193.75 54.1 192.9 54.55 Z
M 122.85 19.35
Q 123.5 19.05 123.65 18.1 123.75 16.75 123 15.8 122.25 14.8 119.5 14.45 119 14.35 115.2 14.1 116.05 11.85 116.4 10.75 116.95 8.8 116.4 7.65 115.95 6.7 114.85 7.25 114 7.7 113.4 8.6 112.9 9.9 112.35 10.7 111.35 12.3 110.3 11.95 108.95 11.05 106.7 11 104.1 10.9 103.95 12.55 103.85 13.4 104.25 14.45 104.6 15.55 105.2 16 106.05 16.65 107.4 16.9 107.95 17.05 109.75 17.2 107.8 19.7 108.65 23.8 109 25.4 109.85 26.3 111.1 27.5 112.75 26.3 113.95 25.45 114.25 23.5 114.4 22.4 114.2 20.45 114 19.8 113.95 19.45 113.85 18.8 114.25 18.4 114.75 18.25 115.55 18.8 116.5 19.35 116.8 19.45 118.95 20.2 121.15 19.75 122.55 19.5 122.85 19.35 Z
M 117.35 81.1
Q 119.25 82.5 123.35 80.7 123.65 80.6 124.25 80.2 124.85 79.9 125.55 80.15 125.65 80.6 125.4 81.55 125.15 82.55 125.15 82.9 125.1 85.15 126.15 87.1 126.9 88.45 127.05 88.6 127.55 89.2 128.4 89.05 129.8 88.7 130.4 87.7 131.15 86.7 130.7 83.9 130.65 83.75 129.75 79.75 130.85 79.75 133.25 79.9 135.35 79.85 136.25 78.9 136.95 78.2 136.15 77.35 135.45 76.65 134.4 76.4 133.05 76.25 132.05 76 130.25 75.5 130.25 74.45 130.75 72.8 130.1 70.65 129.4 68.2 127.75 68.55 127 68.7 126.1 69.35 125.2 70.05 124.85 70.75 124.5 71.75 124.65 73.15 124.7 73.6 125.2 75.5 122.1 74.35 118.5 76.45 117.05 77.25 116.5 78.3 115.7 79.9 117.35 81.1 Z
M 70.4 59.8
Q 68.6 60.3 68.05 59.3 67.7 57.75 66.05 56.1 64.2 54.35 62.95 55.45 62.35 55.95 61.9 57.05 61.5 58.05 61.6 58.85 61.75 59.9 62.6 61 62.9 61.45 64.15 62.85 61 63.35 58.85 66.95 58.05 68.35 58.1 69.6 58.15 71.3 60.2 71.5 61.65 71.7 63.15 70.45 64 69.75 65.2 68.2 65.55 67.55 65.75 67.25 66.1 66.7 66.6 66.7 67.15 66.95 67.4 67.85 67.7 69 67.85 69.25 68.9 71.25 70.8 72.35 72.15 73.15 72.35 73.2 73.05 73.45 73.7 72.85 74.75 72.05 74.85 70.75 74.95 69.5 73.15 67.3 72.8 66.85 70.3 64.2 71.2 63.65 73.35 62.5 75.15 61.45 75.5 60.2 75.75 59.25 74.65 58.9 73.65 58.65 72.6 58.95 71.35 59.5 70.4 59.8 Z"/>
</defs>

<g transform="matrix( 1, 0, 0, 1, 0,0) ">
<g transform="matrix( 1, 0, 0, 1, 0,0) ">
<use xlink:href="#background_alt_0_Layer1_0_FILL"/>
</g>

<g transform="matrix( 1, 0, 0, 1, 0,0) ">
<use xlink:href="#background_alt_0_Layer1_1_1_STROKES"/>

<use xlink:href="#background_alt_0_Layer1_1_2_STROKES"/>
</g>
</g>
</svg>
