
<svg xmlns="http://www.w3.org/2000/svg" version="1.1" xmlns:xlink="http://www.w3.org/1999/xlink" preserveAspectRatio="none" x="0px" y="0px" width="25px" height="25px" viewBox="0 0 25 25">
<defs>
<g id="Buttons_next_0_Layer2_0_FILL">
<path fill="#006600" stroke="none" d="
M 8.85 -8.85
Q 5.15 -12.5 0 -12.5 -5.15 -12.5 -8.85 -8.85 -12.5 -5.15 -12.5 0 -12.5 5.15 -8.85 8.85 -5.15 12.5 0 12.5 5.15 12.5 8.85 8.85 12.5 5.15 12.5 0 12.5 -5.15 8.85 -8.85 Z"/>
</g>

<g id="Buttons_next_0_Layer1_0_FILL">
<path fill="#24FD24" stroke="none" d="
M 7.7 -7.65
Q 4.5 -10.85 0 -10.85 -4.45 -10.85 -7.65 -7.65 -10.85 -4.5 -10.85 0 -10.85 4.5 -7.65 7.65 -4.45 10.85 0 10.85 4.5 10.85 7.7 7.65 10.85 4.5 10.85 0 10.85 -4.5 7.7 -7.65 Z"/>
</g>

<g id="Buttons_next_0_Layer0_0_FILL">
<path fill="#FF9900" stroke="none" d="
M 5.9 -0.2
L -3.45 -5.85 -3.45 6.25 5.9 -0.2 Z"/>
</g>
</defs>

<g transform="matrix( 1, 0, 0, 1, 12.5,12.5) ">
<g transform="matrix( 1, 0, 0, 1, 0,0) ">
<use xlink:href="#Buttons_next_0_Layer2_0_FILL"/>
</g>

<g transform="matrix( 1, 0, 0, 1, 0,0) ">
<use xlink:href="#Buttons_next_0_Layer1_0_FILL"/>
</g>

<g transform="matrix( 1, 0, 0, 1, 0,0) ">
<use xlink:href="#Buttons_next_0_Layer0_0_FILL"/>
</g>
</g>
</svg>
